<svg id="visual" viewBox="0 0 900 675" width="900" height="675" xmlns="http://www.w3.org/2000/svg" xmlns:xlink="http://www.w3.org/1999/xlink" version="1.1"><path d="M0 452L21.5 455.8C43 459.7 86 467.3 128.8 472.5C171.7 477.7 214.3 480.3 257.2 472.5C300 464.7 343 446.3 385.8 437.5C428.7 428.7 471.3 429.3 514.2 420.3C557 411.3 600 392.7 642.8 383C685.7 373.3 728.3 372.7 771.2 385.3C814 398 857 424 878.5 437L900 450L900 676L878.5 676C857 676 814 676 771.2 676C728.3 676 685.7 676 642.8 676C600 676 557 676 514.2 676C471.3 676 428.7 676 385.8 676C343 676 300 676 257.2 676C214.3 676 171.7 676 128.8 676C86 676 43 676 21.5 676L0 676Z" fill="#1597eb"></path><path d="M0 484L21.5 480.3C43 476.7 86 469.3 128.8 472.8C171.7 476.3 214.3 490.7 257.2 497.3C300 504 343 503 385.8 489.5C428.7 476 471.3 450 514.2 438.8C557 427.7 600 431.3 642.8 438.5C685.7 445.7 728.3 456.3 771.2 459.8C814 463.3 857 459.7 878.5 457.8L900 456L900 676L878.5 676C857 676 814 676 771.2 676C728.3 676 685.7 676 642.8 676C600 676 557 676 514.2 676C471.3 676 428.7 676 385.8 676C343 676 300 676 257.2 676C214.3 676 171.7 676 128.8 676C86 676 43 676 21.5 676L0 676Z" fill="#0089e3"></path><path d="M0 428L21.5 436.8C43 445.7 86 463.3 128.8 468.7C171.7 474 214.3 467 257.2 465.5C300 464 343 468 385.8 469C428.7 470 471.3 468 514.2 468.3C557 468.7 600 471.3 642.8 466.2C685.7 461 728.3 448 771.2 449.5C814 451 857 467 878.5 475L900 483L900 676L878.5 676C857 676 814 676 771.2 676C728.3 676 685.7 676 642.8 676C600 676 557 676 514.2 676C471.3 676 428.7 676 385.8 676C343 676 300 676 257.2 676C214.3 676 171.7 676 128.8 676C86 676 43 676 21.5 676L0 676Z" fill="#007cda"></path><path d="M0 471L21.5 481.8C43 492.7 86 514.3 128.8 520.5C171.7 526.7 214.3 517.3 257.2 504.8C300 492.3 343 476.7 385.8 483.5C428.7 490.3 471.3 519.7 514.2 523.2C557 526.7 600 504.3 642.8 489.3C685.7 474.3 728.3 466.7 771.2 473.5C814 480.3 857 501.7 878.5 512.3L900 523L900 676L878.5 676C857 676 814 676 771.2 676C728.3 676 685.7 676 642.8 676C600 676 557 676 514.2 676C471.3 676 428.7 676 385.8 676C343 676 300 676 257.2 676C214.3 676 171.7 676 128.8 676C86 676 43 676 21.5 676L0 676Z" fill="#006ed1"></path><path d="M0 520L21.5 525.7C43 531.3 86 542.7 128.8 541.5C171.7 540.3 214.3 526.7 257.2 521.7C300 516.7 343 520.3 385.8 529.3C428.7 538.3 471.3 552.7 514.2 548.8C557 545 600 523 642.8 516.8C685.7 510.7 728.3 520.3 771.2 531.2C814 542 857 554 878.5 560L900 566L900 676L878.5 676C857 676 814 676 771.2 676C728.3 676 685.7 676 642.8 676C600 676 557 676 514.2 676C471.3 676 428.7 676 385.8 676C343 676 300 676 257.2 676C214.3 676 171.7 676 128.8 676C86 676 43 676 21.5 676L0 676Z" fill="#0060c7"></path><path d="M0 544L21.5 544.7C43 545.3 86 546.7 128.8 543.8C171.7 541 214.3 534 257.2 541.2C300 548.3 343 569.7 385.8 569.5C428.7 569.3 471.3 547.7 514.2 543.3C557 539 600 552 642.8 554C685.7 556 728.3 547 771.2 543C814 539 857 540 878.5 540.5L900 541L900 676L878.5 676C857 676 814 676 771.2 676C728.3 676 685.7 676 642.8 676C600 676 557 676 514.2 676C471.3 676 428.7 676 385.8 676C343 676 300 676 257.2 676C214.3 676 171.7 676 128.8 676C86 676 43 676 21.5 676L0 676Z" fill="#0052bc"></path><path d="M0 608L21.5 603.8C43 599.7 86 591.3 128.8 590.7C171.7 590 214.3 597 257.2 595.8C300 594.7 343 585.3 385.8 586.7C428.7 588 471.3 600 514.2 604.7C557 609.3 600 606.7 642.8 598.2C685.7 589.7 728.3 575.3 771.2 572.5C814 569.7 857 578.3 878.5 582.7L900 587L900 676L878.5 676C857 676 814 676 771.2 676C728.3 676 685.7 676 642.8 676C600 676 557 676 514.2 676C471.3 676 428.7 676 385.8 676C343 676 300 676 257.2 676C214.3 676 171.7 676 128.8 676C86 676 43 676 21.5 676L0 676Z" fill="#0043b1"></path><path d="M0 591L21.5 591.5C43 592 86 593 128.8 596.3C171.7 599.7 214.3 605.3 257.2 607C300 608.7 343 606.3 385.8 611.2C428.7 616 471.3 628 514.2 626.5C557 625 600 610 642.8 606C685.7 602 728.3 609 771.2 611.7C814 614.3 857 612.7 878.5 611.8L900 611L900 676L878.5 676C857 676 814 676 771.2 676C728.3 676 685.7 676 642.8 676C600 676 557 676 514.2 676C471.3 676 428.7 676 385.8 676C343 676 300 676 257.2 676C214.3 676 171.7 676 128.8 676C86 676 43 676 21.5 676L0 676Z" fill="#0735a5"></path><path d="M0 636L21.5 635.5C43 635 86 634 128.8 638C171.7 642 214.3 651 257.2 652.2C300 653.3 343 646.7 385.8 641.5C428.7 636.3 471.3 632.7 514.2 635.2C557 637.7 600 646.3 642.8 646.2C685.7 646 728.3 637 771.2 632.8C814 628.7 857 629.3 878.5 629.7L900 630L900 676L878.5 676C857 676 814 676 771.2 676C728.3 676 685.7 676 642.8 676C600 676 557 676 514.2 676C471.3 676 428.7 676 385.8 676C343 676 300 676 257.2 676C214.3 676 171.7 676 128.8 676C86 676 43 676 21.5 676L0 676Z" fill="#102598"></path></svg>