<svg id="visual" viewBox="0 0 900 675" width="900" height="675" xmlns="http://www.w3.org/2000/svg" xmlns:xlink="http://www.w3.org/1999/xlink" version="1.1"><path d="M0 48L13.7 57C27.3 66 54.7 84 82 83C109.3 82 136.7 62 163.8 52C191 42 218 42 245.2 51C272.3 60 299.7 78 327 82.5C354.3 87 381.7 78 409 71.2C436.3 64.3 463.7 59.7 491 67.5C518.3 75.3 545.7 95.7 573 103.5C600.3 111.3 627.7 106.7 654.8 105.5C682 104.3 709 106.7 736.2 97.7C763.3 88.7 790.7 68.3 818 58.2C845.3 48 872.7 48 886.3 48L900 48L900 0L886.3 0C872.7 0 845.3 0 818 0C790.7 0 763.3 0 736.2 0C709 0 682 0 654.8 0C627.7 0 600.3 0 573 0C545.7 0 518.3 0 491 0C463.7 0 436.3 0 409 0C381.7 0 354.3 0 327 0C299.7 0 272.3 0 245.2 0C218 0 191 0 163.8 0C136.7 0 109.3 0 82 0C54.7 0 27.3 0 13.7 0L0 0Z" fill="#6198ff"></path><path d="M0 210L13.7 211.2C27.3 212.3 54.7 214.7 82 213.7C109.3 212.7 136.7 208.3 163.8 205C191 201.7 218 199.3 245.2 192.5C272.3 185.7 299.7 174.3 327 182.2C354.3 190 381.7 217 409 212.5C436.3 208 463.7 172 491 172C518.3 172 545.7 208 573 213.7C600.3 219.3 627.7 194.7 654.8 190.2C682 185.7 709 201.3 736.2 207C763.3 212.7 790.7 208.3 818 206.2C845.3 204 872.7 204 886.3 204L900 204L900 46L886.3 46C872.7 46 845.3 46 818 56.2C790.7 66.3 763.3 86.7 736.2 95.7C709 104.7 682 102.3 654.8 103.5C627.7 104.7 600.3 109.3 573 101.5C545.7 93.7 518.3 73.3 491 65.5C463.7 57.7 436.3 62.3 409 69.2C381.7 76 354.3 85 327 80.5C299.7 76 272.3 58 245.2 49C218 40 191 40 163.8 50C136.7 60 109.3 80 82 81C54.7 82 27.3 64 13.7 55L0 46Z" fill="#3c80ff"></path><path d="M0 298L13.7 319.3C27.3 340.7 54.7 383.3 82 386.7C109.3 390 136.7 354 163.8 329.3C191 304.7 218 291.3 245.2 289.2C272.3 287 299.7 296 327 311.7C354.3 327.3 381.7 349.7 409 351.8C436.3 354 463.7 336 491 332.7C518.3 329.3 545.7 340.7 573 359.8C600.3 379 627.7 406 654.8 419.5C682 433 709 433 736.2 412.8C763.3 392.7 790.7 352.3 818 354.7C845.3 357 872.7 402 886.3 424.5L900 447L900 202L886.3 202C872.7 202 845.3 202 818 204.2C790.7 206.3 763.3 210.7 736.2 205C709 199.3 682 183.7 654.8 188.2C627.7 192.7 600.3 217.3 573 211.7C545.7 206 518.3 170 491 170C463.7 170 436.3 206 409 210.5C381.7 215 354.3 188 327 180.2C299.7 172.3 272.3 183.7 245.2 190.5C218 197.3 191 199.7 163.8 203C136.7 206.3 109.3 210.7 82 211.7C54.7 212.7 27.3 210.3 13.7 209.2L0 208Z" fill="#0066ff"></path><path d="M0 568L13.7 565.8C27.3 563.7 54.7 559.3 82 554.8C109.3 550.3 136.7 545.7 163.8 542.2C191 538.7 218 536.3 245.2 539.7C272.3 543 299.7 552 327 563.3C354.3 574.7 381.7 588.3 409 583.8C436.3 579.3 463.7 556.7 491 548.8C518.3 541 545.7 548 573 554.8C600.3 561.7 627.7 568.3 654.8 572.8C682 577.3 709 579.7 736.2 581.8C763.3 584 790.7 586 818 588.2C845.3 590.3 872.7 592.7 886.3 593.8L900 595L900 445L886.3 422.5C872.7 400 845.3 355 818 352.7C790.7 350.3 763.3 390.7 736.2 410.8C709 431 682 431 654.8 417.5C627.7 404 600.3 377 573 357.8C545.7 338.7 518.3 327.3 491 330.7C463.7 334 436.3 352 409 349.8C381.7 347.7 354.3 325.3 327 309.7C299.7 294 272.3 285 245.2 287.2C218 289.3 191 302.7 163.8 327.3C136.7 352 109.3 388 82 384.7C54.7 381.3 27.3 338.7 13.7 317.3L0 296Z" fill="#0059dd"></path><path d="M0 676L13.7 676C27.3 676 54.7 676 82 676C109.3 676 136.7 676 163.8 676C191 676 218 676 245.2 676C272.3 676 299.7 676 327 676C354.3 676 381.7 676 409 676C436.3 676 463.7 676 491 676C518.3 676 545.7 676 573 676C600.3 676 627.7 676 654.8 676C682 676 709 676 736.2 676C763.3 676 790.7 676 818 676C845.3 676 872.7 676 886.3 676L900 676L900 593L886.3 591.8C872.7 590.7 845.3 588.3 818 586.2C790.7 584 763.3 582 736.2 579.8C709 577.7 682 575.3 654.8 570.8C627.7 566.3 600.3 559.7 573 552.8C545.7 546 518.3 539 491 546.8C463.7 554.7 436.3 577.3 409 581.8C381.7 586.3 354.3 572.7 327 561.3C299.7 550 272.3 541 245.2 537.7C218 534.3 191 536.7 163.8 540.2C136.7 543.7 109.3 548.3 82 552.8C54.7 557.3 27.3 561.7 13.7 563.8L0 566Z" fill="#004cbb"></path></svg>